<?xml version="1.0" encoding="UTF-8"?>
<svg id="Layer_1" data-name="Layer 1" xmlns="http://www.w3.org/2000/svg" xmlns:xlink="http://www.w3.org/1999/xlink" viewBox="0 0 1691.88 1049.34">
  <defs>
    <style>
      .cls-1 {
        fill: url(#linear-gradient-5);
      }

      .cls-2 {
        fill: url(#linear-gradient-4);
      }

      .cls-3 {
        fill: url(#linear-gradient-3);
      }

      .cls-4 {
        fill: url(#linear-gradient-2);
      }

      .cls-5 {
        font-size: 44.83px;
      }

      .cls-5, .cls-6, .cls-7 {
        font-family: BodoniSvtyTwoITCTT-Bold, 'Bodoni 72';
        font-weight: 700;
      }

      .cls-6 {
        font-size: 80px;
      }

      .cls-8 {
        fill: url(#linear-gradient);
      }

      .cls-7 {
        fill: #fff;
        font-size: 71.32px;
      }

      .cls-9 {
        fill: #ff1f79;
      }
    </style>
    <linearGradient id="linear-gradient" x1="862.12" y1="385.31" x2="1549.75" y2="385.31" gradientUnits="userSpaceOnUse">
      <stop offset="0" stop-color="#006e39"/>
      <stop offset=".5" stop-color="#74bd46"/>
      <stop offset="1" stop-color="#006e39"/>
    </linearGradient>
    <linearGradient id="linear-gradient-2" x1="444.28" y1="395.95" x2="868.16" y2="395.95" gradientUnits="userSpaceOnUse">
      <stop offset="0" stop-color="#00e669"/>
      <stop offset="1" stop-color="#00a4eb"/>
    </linearGradient>
    <linearGradient id="linear-gradient-3" x1="252.23" y1="572.78" x2="612.22" y2="572.78" gradientUnits="userSpaceOnUse">
      <stop offset="0" stop-color="#ffe000"/>
      <stop offset="1" stop-color="#659f00"/>
    </linearGradient>
    <linearGradient id="linear-gradient-4" x1="564.52" y1="685.1" x2="1107.86" y2="685.1" gradientUnits="userSpaceOnUse">
      <stop offset="0" stop-color="#9b2ed5"/>
      <stop offset="1" stop-color="#ee59ba"/>
    </linearGradient>
    <linearGradient id="linear-gradient-5" x1="871.25" y1="690.7" x2="1554.26" y2="690.7" gradientUnits="userSpaceOnUse">
      <stop offset="0" stop-color="#ff8000"/>
      <stop offset="1" stop-color="#ffc81a"/>
    </linearGradient>
  </defs>
  <path id="Somaliland" class="cls-8" d="M1549.75,567.23l-4.51-176.36-2.26-97.22-26.36-104.94.12-.17c-3.74.03-7.79.06-10.62-2.77-5.4-2.56-10.94-5-16.88-5.86-3.73-1.21-8.03-1.01-11.22-3.49-4.42-3.23-10.25-3.07-14.92-5.76-4.31-2.32-9.23-.71-13.69.3-3.7.48-7.04,2.85-10.94,2.12-3.78-.13-7.59-.64-11.35-.33-3.42.97-6.45,2.68-9.19,4.91-4.06,2.87-9.21,1.12-13.77.96-2.92-.5-5.7.74-8.12,2.09-4.01-.3-8.62.15-11.12,3.74-2.73,3.33-3.46,8.91-8.46,9.77-5.07,1.68-10.42.88-15.61,1.95-1.99,1.37-1.43,4.72-4.3,5.17-3.52,3.34-5.62,8.55-10.54,10.09-2.25,1.29-4.96,1.6-7.54,1.91-3.61.71-7.22-1.06-10.83.02-3.33-.19-6.79-.82-9.89.92-3.54,1.12-7.37.24-10.94,1.43-4.34.85-8.9,1.13-13.02-.84-2.75-1.01-5.68-1.77-8.47-.43-3.51.63-6.63,2.45-10.24,1.75-4.16.15-7.96-2.35-12.21-1.98-6.15-.01-10.77,4.75-16.37,6.59-2.8.8-5.69.65-8.41-.28-3.29-1.29-6.83-2.56-9.31-5.28-2.86-1.7-5.35-4.21-8.86-4.49-3.59-.72-6.51-2.81-9.26-5.11-4.88-2-9.75-4.74-15.22-4.19-4.7-.13-9.06,2.5-13.83,1.6-6.84-1.29-13.22,2.5-19.26,5-5.19,2.7-9.8,6.52-15.5,8.13-4.53,2.26-7.79,6.53-12.89,7.74-3.52,1.49-7.73,1.33-10.99,3.29-2.63,3.09-3.18,8.07-7.5,9.51-2.88,1.26-6.18,2.79-6.98,6.1-1.9,3.5-6.63,3.5-8.93,6.72-3.03,2.86-7.27,2.47-11.11,2.59-2.46,1.63-3.63,4.94-6.68,5.97-2.43,1.8-6.41.14-7.86,3.44-1.79,1.71-5.2-.02-6.81,2.39-1.08,2.84-4.06,1.45-6.21,2.39-2.89,1.75-2.67,6.2-6.19,7.07-2.66.44-5.71,1.75-8.3,3.1-4.11,2.45-7.73,5.73-11.76,8.3-3.7,3.06-7.94,5.64-12.66,6.89-4.01,1.57-7.47,4.12-11,6.57-3.89,3.56-9.36,5.13-14.59,4.37-2.59.05-5.43-.93-7.61,1.06-3.72,2.42-8.77.53-12.25,3.6-5.08,2.76-10.17,6.07-16,6.85-3.76.52-7.62.47-11.24-.87-5.08-1.47-11.48.98-15.47-3.4-2.77-3.26-6.63-5.29-9.13-8.84-3.36-2.99-4.65-8.3-9.59-9.29-2.58-.83-5.26,1.33-7.67-.53-4.45-1.18-7.97,2.59-12.23,3.12-5.95,1.73-12.41,2.81-18.46.79-2.93-.38-5.67-1.74-8.58-2.28l-6.04,159.06,9.13,7.27,178,141.95,15.78-2.26,484.72-31.65ZM1138.76,194.35c1.12.46,2.14-1.25,2.93-1.98.49-1.37-2.44,1.1-2.73,1.8l-.19.18"/>
  <path id="path870" class="cls-9" d="M265.87,140.65c.85,2.07,2.07-1.93,0-.18v.18M268.31,141.02c1.17.98,2.54-1.35.84-1.59-1.1-.36-.47,1.11-.85,1.59M316.35,150.01c-2.15-1.11-1.98-5.3.99-4.1,2.08.58,2.74,5.24-.39,4.17l-.41-.05-.19-.02h0ZM311.13,139.86c-2.09-3.25,3.63-2.92,1.13-.61-.38.2-.75.41-1.13.61ZM283.87,142.3c-2.2-1.34,9.71-9.61,4.31-2.15,1.72,2.36-4.88,5.56-3.52,4.34-.26-.73-.53-1.46-.79-2.19ZM285.33,124.79c-1.14-3.66,3.31-1.97,1.42.67-.51,2.36-2.43,5.35-1.58,1.25.05-.64.11-1.28.16-1.91ZM252.23,548.08c.2-2.94-2.73-4.93-2.89-7.59-.46-2.52-3.34-3.49-2.88-6.36-.97-5.32-2.08-10.63-2.37-16.03-.58-3.76-1.7-7.43-2.3-11.18-.56-2.01-2.64-2.58-4.27-3.4-5.63-2.98-11.13-6.23-17.02-8.68-1.62-.9-4.32-3.5-4.89-.2-.72,1.91-3.12.92-4.62.81-2.8-.63-5.54-2.02-7.46-4.18-1.86-2.27-2.26-5.27-3.46-7.87-1.36-3.84-3.39-7.38-4.7-11.23-1.18-3.07-2.39-6.12-3.58-9.18-1.58-1.76-2.29-4.13-3.95-5.82-2.2-2.23-3.36-5.76-6.58-6.83-2.41-.57-4.22-1.72-5.16-4.01-1.79-1.55-3.27-3.36-4.77-5.17-4.29-4.72-9.19-8.87-13.12-13.91-2.29-2.99-4.5-6.05-6.48-9.25-2.02-5.12-5.88-9.33-7.4-14.68-2.34-6.45-5.18-12.76-6.47-19.53-.65-2.9-1.36-5.84-3-8.36-2.81-5.05-5.99-10.06-7.12-15.82-.56-1.91-.78-3.96-1.58-5.78-1.11-2.6-4.7-2.46-5.83-4.64-1.12-2.83-1.47-5.89-2.43-8.76-.47-3.28.2-6.57.17-9.86.27-2.53,1.45-4.84,2.2-7.25,2-1.95,3-4.64,4.63-6.87,3.08-5.06,6.09-10.2,9.88-14.77,1.95-2.86,3.99-5.64,6.2-8.3,3.09-4.04,5.58-8.57,9.28-12.12,1.69-1.89,2.36-4.43,4.15-6.26,2.31-3.9,5.51-7.17,8.18-10.82,2.68-3.46,4.41-7.57,7.35-10.85,3.12-3.5,5.99-7.22,8.39-11.25,2.12-3.25,4.15-6.63,5.2-10.4,1.35-2.88,3.36-5.38,4.87-8.18,17.51-28.58,35.31-58.81,52.82-87.4h0c.56-.14,1.13-.18,1.67-.4,2.04-1.39,4-.89,5.29.99,2.99.17-.15-3.89-1.13-5.14-2.25-1.29-1.36-5.28,1.38-3.35,4.33,2.25,3.64,7.85,5.96,11.46,1.11,1.25,2.63,5.4,4.35,3.66,1.02-2.58,3.83,1.05,3.59,2.84.03,3.21,1.02,6.83,4.49,7.84,3.6,1.8,7.38-.22,11.1.28,3.29,1.27,4.63,5.5,8.28,6.42,2.11,1.27,4.8-.45,3.98-2.94,1.21-3.27,3.87,1.27,2.51,3.07-2.15,2.79-.37,6.15.71,8.95,2.12,3.73-2.08,6.92-1.94,10.59,1.29,5.63,3.3,11.64,7.96,15.39,2.59,2.77,6.65,2.73,9.6,4.73,1.62,4.12,1.49,9.03,4.89,12.29,2.91,3.05,2.57,7.64,4.89,11.04,3.01,4.17,4.38,9.07,7.29,13.28,4.26,6.2,7.22,13.53,13.23,18.32,5.5,3.54,9.88,8.36,14.21,13.25,3.24,3.94,6.68,7.76,9.46,12.01,2.41,3.1,4.98,6.07,7.88,8.7,4.08,3.87,9.06,6.73,13.08,10.69,5.16,4.46,9.52,9.78,14.56,14.36,6.36,3.46,13.64,5.69,18.85,10.83,3.57,3.11,6.08,7.16,10.05,9.8,3.61,3.98,9.06,5.27,13.36,8.42,2.99,2.61,6.39,4.78,9.45,7.39,4.27,3.27,8.59,6.54,12.58,10.12l-18.5,36.91-26.3,38.18-63.13-29.39-102.62,141.39Z"/>
  <path id="path872" class="cls-4" d="M868.16,292.85l-.48-.11c-3.61-1.21-7.3-2.28-11.14-1.69-4.01.36-5.49-4.19-8.96-5.08-5.59-.42-10.21-3.82-14.92-6.44-2.14-1.75-5.7.59-2.87,2.66,2.96,2.34-.94,3.03-2.92,2.04-3.4.06-1.65-3.3-2.75-5.05-2.63-1.71-4.67-4.14-7.22-5.94-1.98-2.2-4.8-1.16-7.32-1.36-3.2-.83-6.73.9-7.23,4.34-.18,3.3-3.63,4.75-6.32,5.7-4.32,1.07-7.26,4.49-9.81,7.89-2.7,1.45-6.28,1-8.27,3.78-2.48,2.96-6.41,1.42-9.65,1.97-3.01.18-4.27,2.85-5.77,5-2.36,1.78-1.86,6.51-5.57,6.3-2.83-.5-4.46,1.86-5.4,4.14-1.57,3.04-5.1,1.51-7.6,2.75-1.96,2.96-4.41,5.9-8.2,6.29-4.67.55-9.38,1.01-14.08.98-3.83.57-6.98-2.05-10.66-2.42-4.82-.61-5.6,5.62-9.36,7.17-4.54,1.24-7.37,5.25-9.78,9.01-2.62,4.71-8.91,3.23-12.74,6.3-2.89,3.22-6.12,6.15-9.66,8.69-5.04,1.84-10.55,1.65-15.56,3.62-3.93,1.05-6.4,4.28-8.98,7.12-2.41,3.89-6.86,6.08-11.38,5.64-3.45.75,3.44,1.39,1.37,3.75-1.66,2.1-4.81,3.23-7.39,3.09-1.54.52-3.94.53-5.82.84-3.64.48-7.38.98-11.04.76-2.29-.11-4.36-1.05-6.41-1.54-4.35-.68-8.06-3.35-12.4-4.21-5.18-1.29-10.47-2.44-15.79-2.96-7.23.58-14.41,2.13-21.23,4.58-5.56,3.35-11.72,5.92-18.3,6.38-1.81.12-5.13.55-5.73-.43-7.12-1.59-14.43-1.88-21.65-2.73-2.11.24-4.54-.07-6.45,1.37-4.08,3.12-9.44,1.58-13.5-.72-3.7-2.01-8.12-1.56-11.89-3.27-5.83-1.81-10.27-5.96-14.55-10.08l-18.5,36.91,17.99,9.06,112.46,74.74,37.49,2.22,214.4,36.28-11.24-31.71,6.75-24.92,17.2-15.59,22.8,3.92,6.04-159.06Z"/>
  <path id="path874" class="cls-3" d="M612.22,483.93l-37.49-2.22-112.46-74.74-17.99-9.06-26.3,38.18-63.13-29.39-102.62,141.39c.29,2.32,2.27,3.79,3.8,5.34,2.59,3.1,4.75,6.61,7.77,9.35,2.22,1.5,3.59,3.88,5.6,5.61,2.66,1.73,5.69,3.68,6.52,6.97.41,4.86,2.81,9.19,4.72,13.58,1.7,1.41,3.59,2.56,5.26,4.01,1.58,1.91,3.78,2.97,6.08,3.79,2.25.73,3.09,2.92,3.7,4.96.72,1.72,2.79,1.81,4.37,1.6,2.63.19,5.82-.12,7.72,2.11,1.51,2.6,4.86,2.61,7.13,4.2,2.55,2.84,5.41,5.66,9.12,6.91,1.78,1.83,2.92,4.31,5.14,5.7,4.31,1.86,6.79,6.09,8.91,10.04,2.72,1.04,5.66,1.66,8.06,3.38,2.62,2.28,4.84,5.2,8.16,6.55,2.65,1.63,4.03,4.94,7.08,6.05,5.89,2.65,8.91,8.86,14.1,12.45,3.3,1.47,5.69,4.26,8.16,6.79,5.06,3.72,9.97,7.66,14.82,11.64,2.99,1.79,3.57,5.6,6.08,7.83,2.98,1.15,6.37,1.17,9.12,2.93,2.24,2.19,4.53,4.49,7.47,5.74,1.42,2.11,3.69,3.46,6.01,4.39,5.45,1.82,10.86,4.07,15.37,7.7,7.44,2.8,15.23,4.52,22.73,7.15,5.65,1.42,11.06,3.64,16.6,5.43,10.59,2.9,20.86,6.79,31.25,10.31,3.91,1.44,7.95,2.45,11.93,3.64,12.98,5.07,26.37,8.96,39.56,13.44l-.04-121.63,31.56-124.35,9.02-11.31,7.12-6.42Z"/>
  <path id="path876" class="cls-2" d="M564.56,747.65l14.15,4.94,47.91,16.22c32.92,11.11,65.94,21.92,98.95,32.76,26.79,8.45,53.5,17.11,80.09,26.19,25.31,8.73,50.69,17.21,76.19,25.39,61.14,20.05,122.01,40.91,182.8,61.99,7.8,2.51,15.11,4.88,23.46,7.07l19.75-126.62-22.54-42.96-182.23-14.99,6.74-40.77-38.59-237.68-9.13-7.27-22.8-3.92-17.2,15.59-6.75,24.92,11.24,31.71-214.4-36.28-7.12,6.42-9.02,11.31-31.56,124.35.04,121.63Z"/>
  <path id="path878" class="cls-1" d="M1088.11,922.2h205.58s13.97,0,13.97,0l63.5-69.25,70.14-76.46,25.03-23.86,87.93-88.18-4.51-97.22-484.72,31.65-15.78,2.26-178-141.95,38.59,237.68-6.74,40.77,182.23,14.99,22.54,42.96-19.75,126.62Z"/>
  <text class="cls-6" transform="translate(1148.65 688.16)"><tspan x="0" y="0">sool</tspan></text>
  <text class="cls-7" transform="translate(574.99 433.79)"><tspan x="0" y="0">saaxil</tspan></text>
  <text class="cls-6" transform="translate(1103.73 399.11)"><tspan x="0" y="0">sanaag</tspan></text>
  <text class="cls-5" transform="translate(308.59 548.08)"><tspan x="0" y="0">Maroodi-Jeex</tspan></text>
  <text class="cls-6" transform="translate(160.63 362.23)"><tspan x="0" y="0">awdal</tspan></text>
  <text class="cls-7" transform="translate(591.03 687.92)"><tspan x="0" y="0">Togdheer</tspan></text>
</svg>